<svg width="39" height="34" viewBox="0 0 39 34" fill="none" xmlns="http://www.w3.org/2000/svg">
<path d="M20.3218 21.4639L25.3082 26.4643L20.3079 31.4646L22.2857 33.4286L29.25 26.4643L22.2857 19.5L20.3218 21.4639Z" fill="#0F2554"/>
<path d="M30.0718 21.4639L35.0582 26.4643L30.0579 31.4646L32.0357 33.4286L39 26.4643L32.0357 19.5L30.0718 21.4639Z" fill="#0F2554"/>
<path d="M16.7143 25.0714H2.78571V4.05321L18.7061 15.0707C18.9392 15.2325 19.2162 15.3191 19.5 15.3191C19.7838 15.3191 20.0608 15.2325 20.2939 15.0707L36.2143 4.05321V16.7143H39V2.78571C39 2.0469 38.7065 1.33834 38.1841 0.815917C37.6617 0.293494 36.9531 0 36.2143 0H2.78571C2.0469 0 1.33834 0.293494 0.815917 0.815917C0.293494 1.33834 0 2.0469 0 2.78571V25.0714C0 25.8102 0.293494 26.5188 0.815917 27.0412C1.33834 27.5637 2.0469 27.8571 2.78571 27.8571H16.7143V25.0714ZM33.15 2.78571L19.5 12.2293L5.85 2.78571H33.15Z" fill="#0F2554"/>
</svg>
