<svg width="11" height="11" viewBox="0 0 11 11" fill="none" xmlns="http://www.w3.org/2000/svg">
<path d="M7.24995 5.5L10.6376 2.11238C11.1208 1.62914 11.1208 0.845668 10.6376 0.362429C10.1543 -0.12081 9.37089 -0.12081 8.88762 0.362429L5.5 3.75005L2.11238 0.362429C1.62914 -0.12081 0.845668 -0.12081 0.362429 0.362429C-0.12081 0.845668 -0.12081 1.62914 0.362429 2.11238L3.75005 5.5L0.362429 8.88762C-0.12081 9.37086 -0.12081 10.1543 0.362429 10.6376C0.604049 10.8792 0.92072 11 1.23739 11C1.55406 11 1.87076 10.8792 2.11235 10.6376L5.5 7.24995L8.88762 10.6376C9.12924 10.8792 9.44591 11 9.76258 11C10.0793 11 10.3959 10.8792 10.6375 10.6376C11.1208 10.1543 11.1208 9.37086 10.6375 8.88762L7.24995 5.5Z" fill="white"/>
</svg>
