<svg width="40" height="40" viewBox="0 0 49 49" fill="none" xmlns="http://www.w3.org/2000/svg">
<path d="M25.8965 0.714846C25.6719 0.488336 25.4046 0.308549 25.1101 0.185858C24.8156 0.0631674 24.4997 0 24.1807 0C23.8617 0 23.5458 0.0631674 23.2513 0.185858C22.9568 0.308549 22.6895 0.488336 22.4648 0.714846L0.714846 22.4648C0.488336 22.6895 0.308549 22.9568 0.185858 23.2513C0.0631674 23.5458 0 23.8617 0 24.1807C0 24.4997 0.0631674 24.8156 0.185858 25.1101C0.308549 25.4046 0.488336 25.6719 0.714846 25.8965C0.940659 26.1205 1.20846 26.2977 1.50291 26.418C1.79735 26.5382 2.11263 26.5992 2.43068 26.5973H4.84735V43.514C4.84735 44.7959 5.35657 46.0253 6.263 46.9317C7.16942 47.8381 8.3988 48.3473 9.68068 48.3473H38.6807C39.9626 48.3473 41.1919 47.8381 42.0984 46.9317C43.0048 46.0253 43.514 44.7959 43.514 43.514V26.5973H45.9307C46.5716 26.5973 47.1863 26.3427 47.6395 25.8895C48.0927 25.4363 48.3473 24.8216 48.3473 24.1807C48.3492 23.8626 48.2882 23.5473 48.168 23.2529C48.0477 22.9585 47.8705 22.6907 47.6465 22.4648L25.8965 0.714846ZM9.68068 43.514V20.3382L24.1807 5.83818L38.6807 20.3382V43.514H9.68068Z" fill="#2F3B7C"/>
</svg>
