<svg width="36" height="44" viewBox="0 0 36 44" fill="none" xmlns="http://www.w3.org/2000/svg">
<path d="M17.9583 0.0833741C19.159 0.0831291 20.3229 0.497732 21.253 1.25701C22.1831 2.0163 22.8224 3.07362 23.0625 4.25004H29.4167C31.0743 4.25004 32.664 4.90852 33.8361 6.08062C35.0082 7.25273 35.6667 8.84244 35.6667 10.5V37.5834C35.6667 39.241 35.0082 40.8307 33.8361 42.0028C32.664 43.1749 31.0743 43.8334 29.4167 43.8334H6.5C4.8424 43.8334 3.25269 43.1749 2.08058 42.0028C0.90848 40.8307 0.25 39.241 0.25 37.5834V10.5C0.25 8.84244 0.90848 7.25273 2.08058 6.08062C3.25269 4.90852 4.8424 4.25004 6.5 4.25004H12.8542C13.0943 3.07362 13.7335 2.0163 14.6636 1.25701C15.5938 0.497732 16.7577 0.0831291 17.9583 0.0833741ZM20.9062 4.25004C20.6915 3.63963 20.2926 3.11094 19.7646 2.73693C19.2365 2.36293 18.6054 2.16206 17.9583 2.16206C17.3113 2.16206 16.6801 2.36293 16.1521 2.73693C15.6241 3.11094 15.2251 3.63963 15.0104 4.25004H20.9062ZM6.5 6.33337C5.39493 6.33337 4.33512 6.77236 3.55372 7.55376C2.77232 8.33516 2.33333 9.39497 2.33333 10.5V37.5834C2.33333 38.6884 2.77232 39.7483 3.55372 40.5297C4.33512 41.3111 5.39493 41.75 6.5 41.75H29.4167C30.5217 41.75 31.5815 41.3111 32.3629 40.5297C33.1443 39.7483 33.5833 38.6884 33.5833 37.5834V10.5C33.5833 9.39497 33.1443 8.33516 32.3629 7.55376C31.5815 6.77236 30.5217 6.33337 29.4167 6.33337H27.3333V12.5834H8.58333V6.33337H6.5ZM10.6667 6.33337V10.5H25.25V6.33337H10.6667Z" fill="#0F2554"/>
</svg>
