<svg width="39" height="39" viewBox="0 0 39 39" fill="none" xmlns="http://www.w3.org/2000/svg">
<g filter="url(#filter0_d_101_707)">
<path d="M33.7715 1.22848C33.607 1.06477 33.3993 0.951419 33.1726 0.901763C32.9459 0.852106 32.7097 0.868204 32.4918 0.948165L5.67935 10.6982C5.44811 10.7859 5.24903 10.9419 5.10855 11.1454C4.96806 11.3489 4.89282 11.5904 4.89282 11.8377C4.89282 12.085 4.96806 12.3265 5.10855 12.53C5.24903 12.7335 5.44811 12.8895 5.67935 12.9772L17.3793 17.6572L22.0593 29.3572C22.1473 29.5783 22.298 29.7688 22.4929 29.9052C22.6878 30.0417 22.9184 30.1181 23.1562 30.125C23.4025 30.12 23.6415 30.0404 23.8417 29.8968C24.0418 29.7532 24.1938 29.5524 24.2775 29.3207L34.0275 2.50816C34.1105 2.29254 34.1305 2.05775 34.0852 1.83118C34.0399 1.6046 33.9311 1.39558 33.7715 1.22848ZM23.1562 25.4938L19.7559 16.9625L25.5937 11.1247L23.8753 9.40629L17.9887 15.2929L9.50622 11.8438L30.8709 4.1291L23.1562 25.4938Z" fill="white"/>
</g>
<defs>
<filter id="filter0_d_101_707" x="0.892822" y="0.873535" width="37.2161" height="37.2515" filterUnits="userSpaceOnUse" color-interpolation-filters="sRGB">
<feFlood flood-opacity="0" result="BackgroundImageFix"/>
<feColorMatrix in="SourceAlpha" type="matrix" values="0 0 0 0 0 0 0 0 0 0 0 0 0 0 0 0 0 0 127 0" result="hardAlpha"/>
<feOffset dy="4"/>
<feGaussianBlur stdDeviation="2"/>
<feComposite in2="hardAlpha" operator="out"/>
<feColorMatrix type="matrix" values="0 0 0 0 0 0 0 0 0 0 0 0 0 0 0 0 0 0 0.25 0"/>
<feBlend mode="normal" in2="BackgroundImageFix" result="effect1_dropShadow_101_707"/>
<feBlend mode="normal" in="SourceGraphic" in2="effect1_dropShadow_101_707" result="shape"/>
</filter>
</defs>
</svg>
