<svg width="32" height="29" viewBox="0 0 32 29" fill="none" xmlns="http://www.w3.org/2000/svg">
<path fill-rule="evenodd" clip-rule="evenodd" d="M23.2655 17.3783C22.8766 17.1982 20.9697 16.3306 20.6147 16.2098C20.2597 16.0902 20.0013 16.031 19.7416 16.3911C19.4832 16.7487 18.7405 17.5583 18.5147 17.7976C18.2876 18.038 18.0618 18.067 17.6742 17.8882C17.2866 17.7069 16.0362 17.3287 14.5549 16.1059C13.4025 15.1537 12.6233 13.978 12.3975 13.6179C12.1717 13.2591 12.3727 13.0645 12.5672 12.8857C12.742 12.725 12.9548 12.4664 13.1493 12.2574C13.3437 12.0471 13.4077 11.8973 13.5369 11.6568C13.6674 11.4176 13.6021 11.2085 13.5043 11.0285C13.4077 10.8484 12.6324 9.08066 12.3087 8.3617C11.9942 7.66208 11.6744 7.75754 11.4369 7.74545C11.2098 7.73579 10.9514 7.73337 10.693 7.73337C10.4345 7.73337 10.0143 7.82279 9.65927 8.18287C9.30297 8.54174 8.30191 9.41053 8.30191 11.1783C8.30191 12.9449 9.6906 14.6523 9.88506 14.8927C10.0795 15.132 12.6194 18.7594 16.51 20.3145C17.4367 20.6843 18.1584 20.9054 18.7209 21.0697C19.6502 21.344 20.496 21.3053 21.1642 21.2123C21.9081 21.1096 23.4587 20.3435 23.7823 19.5049C24.1047 18.6664 24.1047 17.9474 24.0081 17.7976C23.9115 17.6477 23.6531 17.5583 23.2642 17.3783H23.2655ZM16.189 26.3235H16.1837C13.8729 26.3239 11.6044 25.7488 9.6162 24.6585L9.14635 24.3999L4.26247 25.5865L5.56631 21.1785L5.2596 20.7266C3.96768 18.8226 3.28399 16.6192 3.28752 14.3707C3.29013 7.78533 9.07717 2.42759 16.1942 2.42759C19.6398 2.42759 22.8792 3.67217 25.3146 5.92933C26.5158 7.03686 27.4679 8.35393 28.1158 9.80433C28.7637 11.2547 29.0945 12.8097 29.0891 14.3792C29.0865 20.9646 23.2994 26.3235 16.189 26.3235ZM27.1679 4.21471C25.7299 2.87458 24.0189 1.81199 22.134 1.08851C20.2492 0.365043 18.228 -0.00492546 16.1876 4.95145e-05C7.63368 4.95145e-05 0.66938 6.4465 0.66677 14.3695C0.665465 16.9022 1.37938 19.3744 2.73805 21.5531L0.536255 29L8.76394 27.0014C11.04 28.1495 13.5905 28.751 16.1824 28.7511H16.189C24.7429 28.7511 31.7072 22.3046 31.7098 14.3804C31.7161 12.4921 31.318 10.6214 30.5384 8.87649C29.7588 7.13158 28.6132 5.5471 27.1679 4.21471Z" fill="white"/>
</svg>
